# xmcd
#
# Track frame offsets: 
#        150
#        20100
#        45797
#        56288
#        62795
#        71636
#        81808
#        96527
#        114462
#        128028
#        141566
#        154026
#        175130
#        196102
#
# Disc length: 2932 seconds
#
# Revision: 0
# Processed by: cddbd v1.5.2PL0 Copyright (c) Steve Scherf et al.
# Submitted via: ExactAudioCopy v1.0b3
#
DISCID=bf0b720e
DTITLE=Various Artist - THE MANY FACES OF THE WHO [CD1)
DYEAR=2016
DGENRE=Rock
TTITLE0=John Entwistle - Heaven And Hell
TTITLE1=The Crazy World Of Arthur Brown prod by Pete Townshend - Come 
TTITLE1=And Buy
TTITLE2=Johnny Kidd and The Pirates - Shakin' All Over
TTITLE3=Mose Allison - Young Man's Blues
TTITLE4=Eddie Cochran - Summertime Blues
TTITLE5=Benny Spellman - Fortune Teller
TTITLE6=James Brown - I Don't Mind
TTITLE7=John Entwistle - Whiskey Man
TTITLE8=Sonny Boy Williamson - Eyesight To The Blind (The Hawker)
TTITLE9=Bo Diddley - I'm A Man
TTITLE10=James Brown - Please, Please, Please
TTITLE11=John Entwistle - My Wife
TTITLE12=Toyah feat Simon Townshend - Another Way
TTITLE13=Mike Batt feat Roger Daltrey - Children Of The Sky
EXTD=
EXTT0=
EXTT1=
EXTT2=
EXTT3=
EXTT4=
EXTT5=
EXTT6=
EXTT7=
EXTT8=
EXTT9=
EXTT10=
EXTT11=
EXTT12=
EXTT13=
PLAYORDER=
